<?xml version="1.0" standalone="no"?>
<!DOCTYPE svg PUBLIC "-//W3C//DTD SVG 20010904//EN"
 "http://www.w3.org/TR/2001/REC-SVG-20010904/DTD/svg10.dtd">
<svg version="1.0" xmlns="http://www.w3.org/2000/svg"
 width="800.000000pt" height="800.000000pt" viewBox="0 0 800.000000 800.000000"
 preserveAspectRatio="xMidYMid meet">
<metadata>
Created by potrace 1.14, written by Peter Selinger 2001-2017
</metadata>
<g transform="translate(0.000000,800.000000) scale(0.100000,-0.100000)"
fill="#000000" stroke="none">
<path d="M5298 6550 c-16 -18 -21 -60 -7 -60 6 0 8 -4 4 -9 -3 -5 2 -16 10
-25 10 -10 12 -17 4 -21 -6 -5 -2 -13 12 -23 18 -12 24 -13 27 -3 4 11 6 11
12 1 6 -10 13 -9 30 3 14 10 18 17 10 22 -8 5 -5 12 9 22 12 8 19 18 16 23 -3
5 -1 11 4 14 13 9 1 46 -15 46 -8 0 -13 3 -13 8 3 18 -3 21 -26 12 -15 -6 -25
-6 -25 0 0 14 -38 7 -52 -10z"/>
<path d="M5440 6414 c19 -22 81 -69 138 -105 57 -35 96 -65 89 -67 -9 -2 -13
-11 -10 -23 3 -12 11 -18 19 -15 8 3 14 -1 14 -10 0 -12 7 -15 25 -12 21 4 32
-6 85 -77 33 -46 85 -104 115 -130 38 -32 55 -54 55 -70 0 -13 6 -26 13 -29
10 -5 -10 -4 -113 9 -14 2 -33 3 -44 4 -13 1 -16 6 -12 18 9 21 -27 56 -42 41
-8 -8 -15 -8 -25 1 -12 9 -16 8 -21 -4 -3 -9 -10 -14 -15 -10 -5 3 -12 1 -15
-4 -4 -5 -1 -13 5 -17 9 -5 6 -11 -7 -22 -13 -9 -15 -16 -7 -19 7 -2 9 -11 6
-20 -5 -13 -2 -15 15 -11 16 5 22 2 22 -11 0 -13 8 -18 30 -19 18 0 29 4 27
11 -1 7 6 11 16 11 10 -1 17 5 17 16 0 13 7 17 28 14 62 -7 154 -33 185 -53
19 -12 41 -21 48 -21 8 -1 35 -43 60 -95 45 -90 46 -94 25 -97 -14 -2 -20 -9
-18 -21 3 -15 -1 -17 -17 -12 -16 5 -21 2 -21 -14 0 -10 -3 -27 -6 -36 -5 -11
0 -18 15 -22 17 -4 19 -8 10 -20 -10 -11 -8 -15 9 -20 12 -3 22 -9 22 -14 0
-15 28 -10 34 7 5 14 8 14 23 -2 14 -13 18 -14 22 -3 2 8 10 18 17 22 17 10
18 34 2 40 -9 4 -10 6 -1 6 6 1 28 -19 48 -44 40 -48 102 -220 83 -231 -5 -3
-7 -12 -4 -20 3 -8 0 -11 -8 -8 -16 6 -29 -33 -15 -42 6 -3 8 -11 6 -17 -2 -7
0 -25 5 -42 5 -16 11 -41 14 -55 2 -14 9 -36 14 -50 6 -14 12 -47 15 -75 6
-63 6 -61 4 -115 0 -25 2 -63 6 -85 13 -76 13 -115 -1 -160 -7 -25 -11 -45 -8
-45 3 0 -1 -10 -8 -22 -7 -13 -11 -26 -10 -30 1 -5 -2 -8 -6 -8 -5 0 -9 -6
-10 -12 -1 -28 -12 -62 -22 -72 -23 -23 -10 -45 33 -57 23 -7 45 -12 50 -11 4
1 7 -2 7 -8 0 -5 7 -10 15 -10 9 0 18 -7 21 -15 4 -8 12 -15 20 -15 8 0 14 -4
14 -10 0 -5 9 -10 20 -10 14 0 20 -6 18 -17 -2 -12 4 -18 17 -18 17 0 20 -7
20 -47 1 -26 -4 -46 -9 -45 -6 1 -12 -8 -14 -20 -2 -17 2 -23 15 -24 10 0 13
-3 6 -6 -17 -6 -16 -23 1 -23 26 0 34 -84 14 -152 l-11 -39 -35 33 c-49 48
-56 65 -36 85 16 16 15 18 -10 28 -24 10 -25 13 -12 25 12 9 14 16 5 26 -6 8
-15 12 -19 9 -5 -3 -11 4 -15 15 -8 26 -21 26 -35 0 -11 -21 -11 -21 -30 2
l-20 23 -6 -22 c-4 -13 -11 -20 -20 -16 -22 8 -29 -26 -8 -43 16 -13 16 -15 2
-10 -23 7 -45 -21 -30 -36 7 -7 12 -21 12 -31 0 -16 5 -18 26 -13 22 6 25 4
22 -16 -2 -19 2 -23 22 -24 61 -2 69 -5 90 -40 11 -20 19 -43 16 -50 -3 -8 1
-14 9 -14 9 0 12 -6 9 -15 -4 -8 -1 -15 5 -15 16 0 13 -46 -4 -64 -8 -8 -15
-24 -15 -35 0 -23 -10 -27 -27 -10 -16 16 -47 3 -39 -16 3 -9 -1 -18 -8 -21
-29 -11 -26 -35 6 -48 28 -12 29 -14 11 -20 -30 -10 -38 -37 -13 -43 11 -3 20
-11 20 -18 0 -7 7 -18 16 -26 13 -10 17 -10 25 2 7 11 9 11 9 1 0 -23 -114
-222 -127 -222 -7 0 -13 -5 -13 -10 0 -6 -3 -9 -7 -9 -30 5 -33 -2 -24 -64 0
-5 6 -5 11 -2 13 8 13 3 -6 -63 -9 -32 -23 -64 -30 -73 -8 -8 -14 -28 -14 -42
0 -20 -5 -27 -20 -27 -13 0 -20 -7 -20 -19 0 -23 -47 -82 -64 -80 -33 4 -48
-2 -42 -17 4 -12 2 -15 -9 -10 -11 4 -15 -1 -15 -19 0 -14 4 -25 9 -25 6 0
-13 -45 -42 -100 -41 -80 -53 -96 -61 -82 -14 26 -14 26 -30 13 -9 -8 -27 -10
-44 -6 -25 5 -29 10 -31 50 -3 59 26 156 44 149 7 -3 19 4 25 16 9 16 18 20
35 16 32 -8 39 7 20 43 l-15 30 30 -1 c39 -1 46 6 32 38 -9 17 -9 31 -2 44 13
25 -14 42 -47 29 -21 -8 -21 -7 -11 16 17 37 3 59 -31 52 -20 -4 -31 -2 -35 8
-3 8 -12 15 -20 15 -19 0 -38 -34 -30 -54 8 -21 2 -20 -26 4 -30 26 -44 21
-48 -14 -2 -18 -11 -30 -23 -33 -28 -8 -20 -35 15 -51 l28 -14 -23 -12 c-31
-15 -37 -46 -10 -53 11 -3 24 -18 30 -34 5 -16 15 -29 21 -29 5 0 -3 -27 -20
-60 -21 -41 -32 -79 -35 -122 -4 -67 -18 -198 -21 -210 -1 -5 -2 -12 -3 -18 0
-5 -8 -10 -17 -10 -10 0 -14 -6 -10 -15 3 -8 0 -14 -5 -12 -6 1 -13 -8 -15
-21 -2 -12 1 -22 6 -22 19 0 10 -21 -37 -85 -37 -48 -65 -73 -118 -103 -62
-36 -134 -54 -119 -31 3 5 -5 7 -18 5 -13 -2 -22 -10 -22 -19 1 -10 -4 -13
-14 -10 -12 5 -14 0 -10 -25 4 -25 -1 -37 -23 -56 -35 -32 -74 -37 -92 -12
-14 19 -15 19 -32 -7 l-17 -27 -18 22 -17 22 -17 -27 c-10 -14 -25 -27 -34
-29 -14 -3 -14 -6 6 -26 l22 -22 -25 -10 c-15 -6 -23 -15 -19 -24 4 -10 -13
-20 -63 -36 -37 -13 -75 -28 -83 -34 -8 -6 -3 4 10 22 49 67 58 85 86 177 21
70 31 92 40 84 8 -7 20 -2 39 15 23 22 26 28 15 41 -11 13 -10 18 6 31 14 11
15 17 7 20 -7 3 -13 14 -13 23 0 25 -10 32 -31 20 -16 -8 -19 -6 -19 10 0 23
-16 36 -25 21 -3 -5 -18 -7 -32 -4 -24 6 -25 5 -21 -19 5 -24 3 -26 -20 -20
-22 5 -24 3 -19 -16 3 -11 1 -24 -4 -27 -17 -10 -9 -34 11 -34 18 0 19 -3 10
-20 -9 -17 -7 -22 15 -30 32 -12 32 -22 -9 -106 -37 -78 -69 -114 -100 -114
-10 0 -17 -3 -13 -6 3 -3 0 -13 -6 -21 -44 -53 -149 -131 -155 -114 -5 15 -32
14 -32 -1 0 -8 -5 -6 -10 4 -8 13 -14 14 -34 5 -13 -7 -22 -16 -19 -21 4 -5
-2 -15 -12 -23 -13 -9 -15 -13 -5 -13 10 0 11 -3 3 -11 -15 -15 -114 -21 -129
-8 -13 10 -44 2 -44 -12 0 -5 -7 -9 -16 -9 -8 0 -13 -4 -10 -9 4 -5 -29 -21
-71 -35 -109 -36 -173 -34 -173 5 0 15 -7 19 -35 19 -28 0 -35 4 -35 19 0 10
-7 24 -15 31 -13 10 -19 10 -34 -4 -11 -10 -22 -29 -26 -44 l-6 -26 -16 32
c-9 18 -25 37 -35 43 -16 9 -21 6 -31 -20 -9 -25 -17 -31 -40 -31 -17 0 -30
-7 -34 -17 -10 -27 -23 -33 -80 -33 -58 0 -91 9 -73 20 15 9 1 42 -16 36 -8
-3 -14 1 -14 8 0 9 -9 12 -26 8 -16 -3 -23 -9 -20 -18 7 -17 -11 -18 -70 -3
-25 7 -51 20 -57 29 -6 10 -17 16 -24 13 -7 -3 -13 0 -13 5 0 6 -9 10 -20 9
-11 -1 -20 -7 -20 -14 0 -14 -17 -16 -72 -7 -34 6 -36 8 -28 30 10 25 0 37
-22 29 -8 -3 -21 1 -28 10 -12 14 -14 14 -30 0 -16 -15 -19 -13 -34 19 -19 41
-20 53 -3 59 9 4 9 8 -2 15 -8 6 -9 11 -2 13 6 2 8 14 4 27 -3 14 -11 21 -19
18 -8 -3 -14 -1 -14 5 0 6 -8 8 -18 5 -12 -4 -27 3 -43 20 -15 16 -19 24 -9
22 9 -2 15 5 15 17 1 11 4 26 9 33 10 16 4 23 -23 25 -14 1 -17 5 -11 11 17
17 11 36 -11 36 -21 0 -21 1 5 34 14 19 26 38 26 41 0 4 7 13 15 21 19 20 8
42 -40 78 l-35 27 21 38 21 38 -26 27 c-15 14 -31 26 -35 26 -5 0 -11 7 -15
15 -13 34 -42 4 -65 -68 -10 -29 -16 -35 -37 -33 -31 3 -84 46 -66 53 6 3 9 9
6 15 -4 6 -2 13 4 17 5 3 12 15 14 26 1 11 7 23 13 27 11 8 14 138 3 131 -5
-2 -8 3 -8 12 0 8 -7 18 -15 21 -8 4 -12 10 -9 15 3 5 -2 9 -10 9 -9 0 -16 5
-16 10 0 6 -7 10 -15 10 -8 0 -15 5 -15 10 0 6 -9 10 -20 10 -11 0 -20 5 -20
11 0 5 -5 7 -11 4 -6 -4 -30 -8 -54 -10 -25 -1 -51 -7 -58 -14 -8 -6 -17 -8
-20 -4 -4 3 -7 1 -7 -5 0 -7 -6 -12 -13 -12 -7 0 -19 -10 -27 -21 -8 -12 -21
-28 -28 -35 -7 -8 -10 -14 -5 -14 4 0 1 -6 -7 -13 -8 -7 -16 -23 -17 -37 -1
-14 -3 -34 -3 -45 -2 -30 10 -80 21 -83 5 -2 9 -10 9 -17 0 -7 12 -21 28 -31
48 -32 52 -38 37 -68 -8 -14 -11 -26 -8 -26 3 0 0 -6 -6 -14 -6 -8 -11 -18
-10 -22 1 -5 0 -13 -1 -19 -7 -22 -5 -105 2 -105 4 0 5 -7 1 -15 -5 -14 -7
-14 -24 1 -21 19 -39 11 -39 -17 0 -20 -10 -25 -26 -10 -5 5 -26 14 -47 21
-20 6 -34 16 -31 21 3 6 0 33 -7 62 -7 29 -13 56 -14 60 0 5 -7 14 -16 20 -13
10 -49 130 -49 165 0 5 11 14 24 22 23 12 43 50 26 50 -8 0 -34 59 -31 73 0 4
-6 7 -14 7 -8 0 -15 6 -15 13 0 7 -3 8 -8 2 -4 -5 -23 -11 -43 -12 -29 -2 -40
2 -52 20 -9 15 -12 29 -7 37 12 19 3 30 -23 30 -17 0 -19 2 -7 10 8 5 19 5 25
0 21 -18 94 -2 133 29 38 30 38 30 66 12 28 -19 28 -19 57 12 34 35 34 32 12
56 -63 68 -86 100 -62 86 11 -6 12 -5 2 6 -7 7 -13 27 -13 44 0 42 -32 89 -71
105 -19 8 -37 19 -41 24 -5 8 -8 7 -8 -1 0 -6 -9 -10 -20 -8 -11 2 -20 -1 -20
-6 0 -6 -4 -8 -9 -5 -5 3 -25 -1 -44 -9 -25 -10 -34 -20 -32 -32 2 -10 4 -20
4 -23 5 -26 19 -30 57 -16 40 14 40 14 51 -15 6 -16 8 -27 3 -24 -5 3 -12 0
-16 -6 -4 -8 -9 -7 -15 2 -8 12 -11 11 -19 -1 -5 -8 -13 -15 -17 -15 -4 0 -18
-7 -31 -16 -30 -22 -39 -87 -17 -129 9 -17 11 -30 5 -30 -5 0 -10 5 -10 10 0
17 -27 11 -35 -7 -5 -14 -10 -9 -24 23 -17 36 -39 63 -85 102 -9 7 -18 12 -21
12 -26 -1 -36 2 -55 18 l-23 19 23 21 c17 16 27 19 36 11 18 -14 46 -4 63 23
10 16 10 23 2 26 -6 2 -11 11 -11 20 0 8 -3 13 -6 9 -4 -3 -13 1 -21 9 -9 8
-22 13 -29 10 -8 -3 -14 -1 -14 5 0 6 -7 6 -20 -1 -11 -6 -20 -8 -20 -4 0 3
-7 1 -15 -6 -8 -7 -15 -9 -15 -5 0 4 -7 2 -15 -5 -8 -7 -15 -9 -15 -4 0 14
-34 -39 -39 -61 -2 -11 -5 -39 -5 -62 -1 -30 -4 -39 -13 -32 -8 7 -16 3 -26
-12 l-15 -21 -41 38 c-42 41 -94 139 -62 120 10 -7 44 28 35 37 -3 3 1 4 10 3
8 -1 19 -5 22 -9 4 -4 20 -7 35 -7 23 0 31 8 50 48 13 26 24 52 25 59 1 7 8
25 16 40 17 35 13 53 -13 53 -10 0 -19 5 -19 11 0 5 -4 8 -9 5 -5 -3 -14 0
-20 8 -7 8 -22 17 -35 20 -34 8 -37 27 -17 82 16 42 19 45 29 28 6 -10 12 -16
12 -11 0 9 45 -35 45 -45 0 -5 3 -8 8 -8 4 0 16 0 28 0 11 0 17 5 14 10 -3 6
0 10 7 10 16 0 114 64 144 94 35 35 75 126 56 126 -4 0 -14 20 -21 45 -7 25
-17 45 -22 45 -5 0 -9 7 -9 16 0 8 -4 13 -9 9 -6 -3 -8 3 -6 13 3 20 -32 103
-49 114 -6 4 -8 8 -3 8 4 0 -1 8 -10 18 -10 11 -21 17 -25 15 -15 -8 -8 26 8
41 15 15 29 20 47 17 5 -1 6 3 2 9 -5 9 1 12 21 9 4 0 10 3 13 8 6 8 27 21 91
54 52 27 60 66 26 141 -19 43 -41 58 -76 48 -14 -4 -35 -3 -48 2 -16 5 -21 5
-16 -3 4 -6 -1 -10 -12 -8 -19 2 -53 -9 -108 -37 -43 -21 -56 -17 -62 16 -4
17 -10 30 -14 30 -5 0 -12 13 -18 28 -6 17 -18 29 -28 30 -57 5 -80 2 -90 -13
-7 -9 -14 -15 -16 -14 -3 3 -55 -29 -79 -50 -15 -12 -15 -17 -3 -47 8 -19 11
-34 7 -34 -5 0 -2 -4 5 -9 10 -6 7 -15 -13 -40 -15 -17 -31 -29 -35 -26 -5 3
-12 -1 -17 -9 -4 -8 -10 -15 -13 -15 -3 0 -18 -4 -33 -10 -16 -6 -33 -11 -38
-11 -5 0 -9 -4 -9 -8 0 -5 -16 -14 -36 -20 -29 -8 -33 -8 -24 3 8 9 6 14 -6
19 -9 4 -14 13 -10 21 3 9 0 15 -10 15 -12 0 -15 17 -13 98 0 53 -2 113 -6
133 -6 31 -3 40 24 67 17 17 47 60 66 97 19 37 45 75 57 85 13 10 39 41 58 68
38 56 78 82 91 60 7 -11 12 -11 29 0 17 11 20 10 20 -7 0 -23 16 -36 25 -21 3
5 17 10 30 10 22 0 23 3 16 23 -9 22 -7 23 16 19 23 -4 25 -2 20 19 -3 12 -1
29 5 36 13 16 -13 29 -38 19 -14 -5 -15 -4 -4 9 14 17 6 50 -11 40 -5 -4 -16
1 -23 11 -13 17 -14 16 -26 -5 -9 -17 -15 -20 -23 -12 -15 15 -27 14 -27 -3 0
-8 -7 -16 -15 -20 -18 -6 -20 -33 -4 -38 14 -5 -32 -58 -50 -58 -6 0 -28 -17
-49 -39 -35 -36 -82 -59 -82 -40 0 5 -11 8 -25 7 -16 -2 -24 -7 -21 -15 3 -7
-1 -13 -9 -13 -9 0 -15 -10 -15 -25 0 -14 5 -25 10 -25 6 0 5 -8 -2 -20 -8
-12 -16 -16 -22 -10 -6 6 -16 4 -28 -7 -17 -15 -18 -15 -18 11 0 15 11 72 25
126 14 54 25 126 26 160 1 43 5 58 12 51 15 -15 27 -14 27 4 0 8 7 15 15 15
18 0 19 12 3 28 -9 9 -8 12 5 12 9 0 17 7 17 15 0 8 -4 15 -10 15 -5 0 -7 7
-3 16 5 14 1 16 -19 12 -20 -4 -25 -1 -21 10 3 8 1 17 -5 21 -8 5 5 41 38 110
54 110 68 130 88 123 6 -2 13 2 13 10 1 7 2 20 3 28 1 8 -4 22 -11 30 -9 12
-7 33 11 101 22 87 41 119 64 111 11 -3 16 10 13 31 0 4 3 7 9 7 5 0 7 6 5 13
-6 15 84 131 105 135 19 4 43 34 32 41 -4 3 -8 12 -10 19 -4 20 69 154 82 149
16 -6 50 29 36 38 -12 7 16 37 108 115 30 25 66 61 80 80 18 23 35 35 52 35
22 0 25 5 25 36 1 55 42 98 161 168 91 53 108 61 116 47 5 -8 15 -13 24 -9 8
3 14 2 12 -3 -4 -11 5 -14 33 -14 11 0 17 5 14 10 -3 6 1 10 9 10 14 0 20 13
19 47 0 6 6 9 15 5 11 -4 14 -1 10 10 -4 9 -1 21 5 27 8 8 6 11 -7 11 -12 0
-16 5 -13 14 7 17 -17 40 -35 33 -7 -2 -23 -1 -34 4 -12 4 -25 5 -29 1 -4 -4
-10 -7 -14 -7 -16 0 -41 -34 -31 -40 8 -5 8 -11 0 -20 -8 -9 -8 -15 0 -20 25
-15 3 -36 -102 -94 -108 -60 -117 -67 -193 -163 -105 -132 -246 -248 -265
-219 -3 6 -16 8 -28 4 -12 -3 -19 -9 -16 -14 3 -5 -1 -9 -9 -9 -19 0 -19 -48
0 -52 23 -5 -89 -212 -153 -284 -45 -51 -51 -55 -47 -32 6 32 -23 150 -47 193
-17 30 -14 77 5 76 5 -1 9 9 9 22 0 12 -6 21 -12 20 -7 -2 -12 6 -12 18 0 11
-4 18 -9 14 -5 -3 -13 0 -17 6 -5 9 -11 7 -21 -6 -9 -13 -13 -14 -13 -5 0 9
-7 6 -21 -9 -16 -17 -18 -25 -9 -36 8 -10 8 -15 -2 -19 -10 -5 -10 -7 0 -12 6
-3 12 -13 12 -21 0 -12 3 -13 14 -4 11 9 15 8 20 -5 4 -9 9 -14 13 -10 3 3 15
-13 26 -37 30 -64 29 -221 -2 -304 -13 -35 -27 -63 -31 -63 -11 0 -20 -39 -10
-45 12 -7 -29 -123 -72 -210 l-35 -69 -17 31 c-9 18 -13 39 -10 47 4 10 1 16
-7 16 -8 0 -5 6 7 15 11 8 14 15 7 15 -7 0 -13 7 -13 16 0 14 -3 14 -15 4 -12
-10 -15 -9 -15 4 0 13 -5 16 -22 10 -13 -4 -26 -11 -29 -17 -4 -5 -26 12 -50
38 -24 26 -67 60 -96 76 -52 30 -103 75 -56 51 29 -16 33 -15 33 8 0 11 5 20
10 20 17 0 11 27 -7 35 -17 6 -17 7 1 21 19 13 18 14 -8 39 -28 26 -46 32 -46
15 0 -5 -4 -10 -10 -10 -5 0 -10 7 -10 15 0 8 -7 15 -15 15 -8 0 -15 -4 -15
-10 0 -5 -9 -10 -21 -10 -18 0 -20 -4 -15 -25 5 -20 3 -25 -14 -25 -21 0 -27
-14 -11 -24 5 -3 7 -16 4 -27 -5 -19 -3 -21 18 -17 23 4 25 2 21 -24 -3 -22
-1 -27 11 -22 8 3 28 -2 44 -10 39 -22 111 -86 96 -86 -7 0 -13 -5 -13 -11 0
-13 30 -44 44 -45 24 -1 97 -83 117 -130 11 -27 28 -63 36 -80 14 -27 14 -39
4 -80 -7 -28 -9 -50 -3 -52 9 -3 7 -50 -4 -139 -4 -34 -9 -42 -30 -47 -17 -5
-24 -12 -20 -21 3 -8 1 -15 -4 -15 -5 0 -8 -9 -7 -20 1 -11 7 -20 15 -20 14 0
12 -22 -12 -105 -10 -33 -9 -62 6 -160 22 -142 21 -181 -4 -177 -11 2 -18 -3
-18 -13 0 -19 -13 -19 -57 2 -32 15 -35 19 -30 50 5 29 3 33 -16 33 -16 0 -18
3 -9 12 17 17 15 28 -7 28 -11 0 -22 6 -25 13 -3 8 -8 7 -16 -5 -10 -17 -12
-17 -37 -1 -25 17 -25 16 -19 -4 5 -16 2 -22 -10 -25 -17 -3 -17 -4 0 -20 15
-16 15 -18 2 -18 -9 0 -16 -7 -16 -15 0 -8 4 -15 10 -15 5 0 9 -6 7 -12 -1 -7
7 -13 17 -13 10 0 22 -9 26 -19 5 -14 9 -16 14 -7 4 6 16 9 27 6 14 -5 19 -2
19 11 0 16 2 15 23 -3 12 -11 37 -28 54 -39 18 -10 33 -24 33 -31 0 -7 7 -13
15 -13 19 0 28 -36 23 -91 -3 -26 3 -66 13 -96 10 -28 15 -54 12 -56 -2 -3 2
-16 11 -29 8 -13 22 -43 31 -67 14 -39 13 -43 -1 -37 -9 4 -51 13 -93 22 -113
23 -174 55 -131 69 26 8 26 31 0 45 -11 6 -18 14 -16 18 3 5 1 13 -3 20 -6 9
-14 7 -35 -9 -14 -11 -26 -17 -24 -12 4 14 -13 53 -23 53 -5 0 -12 -7 -16 -16
-4 -10 -13 -14 -29 -10 -28 7 -37 -5 -25 -37 8 -21 7 -23 -14 -20 -28 6 -39
-10 -26 -35 7 -13 7 -22 -1 -30 -16 -16 2 -34 29 -29 19 3 23 1 18 -12 -7 -18
-8 -21 -6 -39 1 -9 8 -11 21 -7 12 4 26 0 36 -9 20 -21 34 -12 34 21 0 25 1
26 20 8 21 -19 50 -14 50 10 0 21 14 19 74 -9 28 -13 65 -29 83 -36 45 -17 87
-52 91 -75 2 -11 8 -23 13 -26 5 -3 12 -25 15 -50 10 -77 12 -86 28 -117 17
-32 21 -72 9 -72 -32 -1 -39 -50 -7 -50 20 0 17 -13 -6 -28 -11 -7 -20 -16
-20 -21 0 -5 9 -13 20 -16 11 -3 20 -15 20 -25 0 -28 15 -32 42 -11 24 19 24
19 25 -1 3 -30 20 -45 35 -30 10 10 19 -8 45 -85 34 -104 39 -128 23 -118 -6
4 -10 -5 -10 -19 0 -14 5 -26 11 -26 6 0 9 -6 6 -14 -7 -17 34 -30 44 -14 11
17 97 -76 158 -170 40 -63 40 -80 -2 -73 -5 1 -46 4 -90 7 -66 4 -85 9 -99 25
-10 11 -22 18 -28 14 -5 -3 -10 -1 -10 4 0 6 -11 10 -25 9 -15 -2 -24 -7 -21
-15 9 -22 -49 -24 -122 -4 -38 10 -100 22 -136 26 -37 4 -68 11 -71 14 -2 4 6
7 18 6 12 -1 28 0 35 3 15 5 16 34 1 49 -8 8 -8 17 0 31 14 27 -12 44 -47 31
-21 -8 -23 -7 -17 13 4 13 7 25 7 28 1 28 -4 31 -32 25 -21 -5 -35 -2 -47 10
-16 16 -17 16 -30 -1 -7 -9 -11 -28 -8 -41 l4 -23 -31 21 c-29 21 -32 21 -44
5 -7 -10 -10 -24 -8 -31 3 -7 -4 -16 -15 -20 -33 -10 -26 -41 11 -55 31 -10
32 -12 13 -22 -41 -23 -46 -53 -11 -62 15 -4 26 -15 28 -28 5 -32 23 -32 52
-1 24 25 26 26 26 7 0 -11 6 -29 14 -39 13 -18 14 -18 32 3 11 13 30 22 47 22
24 0 28 4 24 19 -4 18 -1 18 67 -3 39 -13 98 -35 132 -50 33 -15 98 -32 144
-39 46 -7 85 -17 87 -24 4 -11 -71 -73 -88 -73 -5 0 -17 9 -28 21 -12 13 -21
17 -26 10 -9 -16 -25 -13 -25 5 0 9 -5 13 -12 10 -7 -3 -21 -9 -31 -12 -12 -4
-16 -13 -12 -25 4 -13 2 -19 -6 -17 -8 2 -13 -10 -15 -30 -1 -28 1 -33 17 -29
14 4 18 0 16 -17 -1 -13 3 -20 12 -18 7 1 19 -2 26 -8 9 -8 14 -5 18 11 5 19
8 20 22 9 14 -11 17 -10 22 8 3 12 10 22 15 22 6 0 7 7 4 16 -4 11 8 21 44 38
28 13 62 35 77 50 15 15 29 23 31 17 2 -6 10 -11 18 -11 7 0 11 -6 8 -14 -7
-17 24 -30 41 -16 6 5 15 7 19 3 4 -4 10 -2 15 5 4 7 27 13 52 15 37 2 45 -1
54 -21 5 -12 15 -22 22 -22 7 0 10 -6 7 -14 -5 -14 22 -30 36 -21 5 3 14 -3
19 -13 14 -26 40 -144 44 -194 1 -10 4 -18 8 -18 4 0 6 -8 4 -17 -1 -10 2 -24
8 -31 5 -7 7 -15 4 -19 -4 -3 -2 -12 4 -19 6 -8 9 -20 6 -28 -3 -8 -3 -17 1
-21 7 -6 8 -10 11 -36 0 -5 5 -8 10 -5 4 3 6 -6 3 -19 -9 -51 41 -118 73 -96
6 4 28 13 50 20 49 17 77 44 75 74 -3 36 -1 40 15 27 12 -10 15 -10 15 0 0 7
6 10 14 7 8 -3 20 1 26 8 10 12 23 9 82 -21 39 -20 75 -40 82 -45 6 -5 48 -39
93 -75 46 -37 80 -70 77 -75 -3 -5 0 -9 5 -9 6 0 11 -10 11 -22 0 -12 3 -18 7
-15 3 4 12 2 20 -4 8 -8 13 -8 13 -1 0 23 134 -7 157 -35 6 -8 15 -13 20 -10
5 3 24 2 43 -3 28 -6 30 -8 10 -9 -14 -1 -54 -10 -90 -21 -77 -24 -71 -23 -67
-7 1 6 -6 11 -15 9 -10 -2 -18 2 -18 7 0 5 -9 9 -20 8 -11 -1 -20 -7 -20 -14
0 -7 -7 -13 -15 -13 -8 0 -12 -6 -9 -14 6 -15 -5 -25 -34 -31 -10 -2 -49 13
-87 34 -58 30 -70 40 -68 59 2 12 -2 22 -8 22 -7 0 -6 6 2 17 11 13 11 17 2
20 -7 3 -13 11 -13 19 0 17 -16 19 -26 3 -5 -8 -10 -6 -16 5 -5 9 -14 13 -21
9 -7 -4 -16 -8 -22 -8 -5 0 -9 -8 -7 -18 2 -10 -3 -17 -12 -17 -20 0 -14 -54
7 -58 10 -2 14 -9 10 -19 -5 -12 -2 -15 10 -10 9 3 19 1 23 -5 5 -7 11 -6 19
5 10 14 18 11 70 -26 l59 -41 -36 -8 c-49 -10 -96 -16 -202 -24 -87 -7 -88 -6
-81 15 5 18 1 24 -26 35 -18 8 -39 12 -46 9 -21 -8 -15 10 10 32 46 40 39 75
-14 75 -20 0 -28 6 -33 25 -4 14 -13 28 -22 32 -16 6 -54 -31 -54 -54 0 -23
-17 -14 -30 16 -15 37 -40 48 -57 25 -7 -10 -13 -24 -13 -31 0 -8 -13 -13 -34
-13 -49 0 -55 -25 -14 -67 l32 -33 -31 0 c-17 0 -41 -8 -53 -18 l-23 -19 28
-25 c23 -21 25 -29 16 -46 -24 -44 20 -69 63 -37 29 22 36 18 27 -13 -9 -31 2
-72 20 -72 7 0 20 7 30 16 16 14 20 14 43 -1 41 -27 60 -13 54 39 l-5 44 41
-18 c41 -19 68 -13 63 13 -1 7 5 10 13 9 45 -11 110 -18 148 -17 27 1 42 -2
42 -10 0 -18 30 -28 45 -15 6 5 15 7 19 3 4 -4 11 -2 15 5 5 9 35 13 97 13 75
-1 165 8 259 23 11 2 30 0 41 -5 13 -4 26 -3 33 4 6 6 11 7 11 3 0 -5 6 -4 13
2 7 6 53 25 102 42 72 26 93 30 112 21 24 -11 56 -15 191 -26 83 -7 102 -12
102 -29 0 -6 9 -17 20 -24 11 -7 20 -8 20 -3 0 21 61 19 136 -5 43 -13 87 -24
97 -24 14 0 15 -3 5 -19 -15 -24 4 -51 31 -44 13 3 20 -2 25 -21 8 -33 33 -33
48 -1 14 31 22 31 42 0 21 -32 33 -32 48 0 6 14 17 24 24 21 6 -2 21 2 32 10
13 9 23 11 27 4 3 -5 16 -10 29 -10 15 0 27 -9 34 -25 15 -33 28 -32 51 6 l19
31 14 -28 c18 -38 45 -43 54 -9 3 14 11 25 18 24 32 -4 46 3 46 21 0 11 -4 20
-10 20 -5 0 -10 4 -10 9 0 13 274 103 301 99 13 -2 30 -8 38 -13 10 -5 16 -4
19 3 2 7 8 10 13 6 5 -3 16 2 25 10 8 9 29 17 45 17 16 1 39 2 52 3 12 1 47
-6 77 -15 53 -16 73 -17 255 -5 45 2 54 -1 105 -40 40 -31 85 -52 162 -78 59
-19 117 -33 130 -31 12 3 32 2 45 -1 19 -5 21 -9 12 -25 -8 -16 -6 -19 11 -19
11 0 20 -4 20 -10 0 -17 27 -11 34 7 6 14 8 14 21 -3 13 -18 14 -18 20 -1 4 9
13 17 21 17 16 0 19 26 4 35 -5 3 7 22 28 42 31 30 32 33 9 19 -28 -17 -29
-17 -34 4 -4 15 -12 20 -24 17 -11 -3 -19 2 -22 15 -4 14 -10 17 -19 12 -7 -5
-21 -7 -30 -6 -12 2 -18 -3 -18 -17 0 -14 -6 -21 -20 -21 -14 0 -20 -6 -18
-17 5 -31 -53 -23 -154 19 -103 43 -120 54 -99 67 7 5 10 14 7 20 -5 7 3 11
21 12 50 1 222 48 335 92 55 21 67 23 72 11 8 -20 29 -18 59 6 14 11 27 20 29
20 2 0 2 -18 0 -40 -5 -48 15 -61 54 -35 19 12 29 14 37 6 31 -31 69 8 48 48
-19 34 -12 40 29 24 51 -20 70 -8 51 33 -10 24 -9 30 11 51 23 24 23 25 4 39
-11 8 -33 14 -49 14 l-28 0 20 26 c33 42 28 64 -14 64 -19 0 -35 4 -35 9 0 13
-29 41 -41 41 -6 0 -18 -19 -28 -41 -17 -37 -20 -39 -26 -20 -3 12 -18 29 -32
38 -21 14 -26 14 -34 2 -5 -8 -9 -21 -9 -30 0 -11 -12 -19 -35 -23 -44 -9 -45
-28 -5 -66 l30 -28 -36 -6 c-43 -9 -55 -33 -26 -56 20 -16 17 -18 -84 -39
l-105 -23 -19 22 c-10 12 -24 19 -29 15 -6 -3 -11 -1 -11 4 0 6 -11 11 -25 11
-18 0 -23 -4 -19 -15 4 -9 0 -15 -10 -15 -9 0 -13 -6 -10 -14 9 -24 -41 -28
-166 -11 -14 2 -49 4 -79 4 -43 1 -51 4 -42 14 7 10 7 17 0 24 -14 14 23 27
51 18 12 -4 20 -2 20 5 0 6 5 8 11 5 5 -4 18 2 27 12 9 11 33 25 52 33 19 7
61 36 93 63 46 39 61 47 67 36 7 -11 10 -10 16 5 5 13 9 14 14 5 6 -9 12 -8
25 4 9 9 13 22 9 28 -3 6 0 15 7 20 12 8 12 10 0 18 -11 7 -7 14 19 30 19 11
37 18 42 15 4 -3 11 2 14 11 5 11 10 13 19 5 8 -7 15 -3 24 13 25 47 110 84
127 55 5 -7 10 -3 16 12 7 18 11 21 20 12 16 -16 28 -15 28 3 0 7 8 18 17 24
17 9 16 11 -1 30 -17 19 -17 21 -3 21 19 0 23 26 5 32 -18 6 71 127 129 174
83 68 148 138 167 182 11 23 25 42 33 42 7 0 13 5 13 11 0 8 4 8 13 1 10 -8
16 -6 26 10 11 17 10 22 -1 29 -10 7 -9 9 4 9 14 0 14 4 5 24 -7 13 -16 22
-20 19 -13 -8 12 36 49 88 40 56 57 64 88 44 26 -17 36 -11 36 22 0 26 7 28
34 8 24 -18 36 -11 36 21 0 14 6 24 14 24 8 0 17 7 20 16 4 11 -3 19 -23 27
l-29 11 24 19 c20 15 22 22 13 33 -6 8 -18 14 -25 14 -27 0 -13 19 19 25 17 4
43 12 57 18 14 6 27 11 30 11 3 1 23 13 45 28 50 32 101 85 114 118 l10 25 7
-22 c7 -26 18 -29 36 -10 6 8 23 11 37 9 22 -5 24 -3 18 27 -6 29 -5 31 18 27
30 -6 39 7 25 33 -7 13 -7 22 0 26 23 14 10 35 -22 35 -25 0 -29 3 -20 12 17
17 15 48 -3 48 -8 0 -15 6 -15 13 0 9 -3 8 -9 -2 -7 -11 -11 -10 -20 5 -11 18
-11 18 -26 0 -8 -11 -15 -26 -15 -33 0 -8 -8 -5 -22 9 -20 20 -22 20 -34 3 -7
-10 -11 -21 -9 -25 3 -4 -4 -10 -15 -13 -25 -6 -26 -23 -1 -39 18 -11 18 -12
-6 -31 l-25 -20 22 -17 c13 -10 21 -25 19 -35 -7 -35 -119 -97 -119 -66 0 5
-9 7 -20 4 -11 -3 -20 -12 -20 -19 0 -8 -3 -13 -7 -13 -5 1 -10 0 -13 -1 -33
-13 -41 -7 -35 23 4 18 23 62 43 99 26 49 39 65 48 57 14 -12 26 11 30 61 2
19 7 59 13 88 5 29 8 61 6 72 -3 14 2 20 16 20 12 0 19 7 19 20 0 11 -5 20
-10 20 -7 0 -7 7 0 21 9 16 8 24 -4 38 -15 16 -13 27 16 129 17 62 34 110 36
107 3 -2 13 5 23 17 20 22 26 58 10 58 -5 0 -12 8 -16 18 -8 18 -9 25 -22 132
-9 76 -6 242 5 250 17 11 96 132 97 148 8 90 24 133 39 100 3 -10 9 -8 19 5 8
9 19 17 26 17 18 0 13 27 -6 35 -16 6 -15 8 5 16 22 8 31 29 12 29 -5 0 -10 9
-10 19 0 23 -16 36 -25 21 -10 -16 -22 -11 -28 12 -5 17 -9 19 -20 9 -8 -6
-22 -8 -32 -5 -15 6 -17 3 -13 -18 4 -22 2 -24 -20 -20 -21 4 -23 2 -18 -16 4
-11 2 -23 -4 -27 -16 -10 -2 -25 23 -25 16 0 18 -3 9 -12 -18 -18 -14 -38 8
-38 38 0 19 -93 -31 -150 -28 -33 -29 -34 -26 -10 2 14 -4 49 -15 79 -14 43
-19 106 -8 106 1 0 3 16 5 35 1 19 3 35 5 35 7 0 7 225 0 250 -5 17 -14 50
-21 75 -7 25 -17 50 -22 57 -5 7 -6 17 -2 23 3 5 1 10 -5 10 -6 0 -9 4 -6 9 4
5 2 11 -4 13 -6 2 -12 14 -15 27 -2 14 -8 27 -12 30 -15 11 -13 38 4 53 25 21
51 29 58 18 11 -17 25 -11 25 10 0 17 3 19 19 10 17 -8 22 -5 36 22 14 29 14
33 0 41 -15 8 -15 10 2 22 17 13 17 14 1 20 -10 4 -18 13 -18 20 0 22 -17 27
-34 10 -13 -13 -15 -13 -21 6 -6 19 -8 19 -25 4 -10 -9 -24 -14 -31 -9 -9 5
-10 0 -5 -20 5 -22 3 -26 -14 -26 -20 0 -27 -14 -12 -24 4 -2 7 -17 7 -32 -2
-38 -40 -64 -98 -68 l-46 -3 -20 58 c-16 50 -17 58 -4 63 8 3 12 10 9 15 -4 5
-1 11 5 13 10 3 -23 50 -35 49 -20 -3 -26 0 -26 12 0 6 -15 28 -33 47 -123
134 -172 202 -133 187 17 -7 50 30 35 39 -8 4 -7 9 2 14 9 6 9 12 -4 25 -9 9
-21 13 -27 10 -5 -3 -10 0 -10 8 0 10 -7 13 -20 10 -11 -3 -20 -11 -20 -19 0
-29 -27 -1 -63 66 -21 39 -44 70 -50 70 -9 0 -9 2 0 8 17 11 5 52 -13 45 -8
-3 -14 0 -14 6 0 7 -9 9 -23 6 -16 -4 -37 6 -78 37 -66 51 -185 201 -182 229
2 10 -2 19 -8 19 -8 0 -7 5 1 15 13 15 4 19 -37 18 -7 -1 -13 4 -13 9 0 7 -5
6 -14 -1 -11 -9 -33 0 -102 40 -49 28 -109 69 -134 92 l-44 42 34 -41z m-4008
-2618 c-2 -10 1 -23 6 -29 5 -7 12 -32 15 -57 l6 -45 -24 53 c-25 52 -30 106
-10 99 5 -2 9 -12 7 -21z m392 -168 c19 -18 41 -51 50 -73 9 -21 21 -42 27
-46 7 -4 5 -12 -5 -21 -8 -9 -12 -19 -8 -23 4 -4 0 -5 -8 -4 -17 4 -80 -22
-80 -33 0 -4 -7 -5 -17 -1 -13 5 -15 2 -11 -15 5 -16 2 -22 -11 -22 -14 0 -17
-7 -13 -30 2 -17 10 -30 19 -30 8 0 11 -5 8 -10 -3 -6 0 -13 9 -16 25 -10 -2
-56 -28 -48 -33 9 -97 43 -113 60 -11 10 -25 13 -44 9 -22 -5 -31 -2 -35 10
-4 9 -12 14 -19 11 -17 -6 -22 7 -40 121 -12 76 -13 98 -3 104 15 10 28 2 28
-17 0 -20 10 -18 50 9 31 22 79 39 97 36 3 0 10 6 15 15 5 9 13 14 18 11 4 -3
11 2 14 11 3 8 10 12 16 9 5 -3 10 -1 10 4 0 22 41 10 74 -21z m574 -855 c10
-10 8 -17 -7 -32 -20 -20 -58 -22 -53 -2 1 6 -3 11 -8 11 -6 0 -5 8 2 20 14
21 48 23 66 3z m-491 -15 c-3 -8 -6 -5 -6 6 -1 11 2 17 5 13 3 -3 4 -12 1 -19z
m167 -61 c14 -13 14 -20 5 -35 -14 -23 -54 -26 -70 -6 -6 8 -18 14 -25 14 -22
0 -16 14 14 31 33 19 55 18 76 -4z m-87 -99 c-3 -8 -6 -5 -6 6 -1 11 2 17 5
13 3 -3 4 -12 1 -19z m74 -64 c19 3 41 7 50 11 12 4 18 -1 22 -17 5 -18 9 -20
19 -10 19 19 28 14 28 -13 0 -14 -6 -25 -12 -25 -7 -1 -31 -9 -53 -20 -22 -11
-43 -19 -47 -20 -10 0 -67 97 -60 104 3 4 9 2 12 -4 4 -6 22 -8 41 -6z m229
-5 c0 -15 -22 -21 -31 -8 -14 22 -11 28 11 22 11 -3 20 -9 20 -14z m543 -22
c19 -12 26 -25 25 -42 -1 -14 -6 -25 -10 -25 -4 0 -7 -3 -6 -7 0 -5 -2 -16 -6
-25 -13 -28 -86 -21 -86 8 0 8 -4 14 -9 14 -12 0 -21 39 -10 46 5 3 6 10 3 16
-4 6 -2 8 3 5 6 -4 14 0 17 9 3 8 10 12 16 9 5 -3 10 -2 10 4 0 13 22 8 53
-12z m-465 -224 c3 -63 1 -69 -18 -70 -14 -1 -20 3 -18 14 2 8 -6 20 -17 27
-11 6 -22 12 -24 14 -3 1 4 8 14 16 23 16 13 51 -11 42 -14 -5 -15 -4 -4 9 7
8 15 13 19 11 3 -2 15 0 26 4 11 4 22 6 25 5 3 -2 7 -34 8 -72z m503 -84 c4
-6 12 -8 18 -5 6 4 14 0 17 -8 3 -9 10 -16 16 -16 5 0 16 -7 24 -15 12 -12 13
-19 3 -37 -25 -47 -51 -57 -113 -45 -19 4 -38 35 -29 50 2 4 0 7 -6 7 -6 0 -4
18 5 44 13 37 19 44 36 41 12 -3 25 -10 29 -16z m239 -124 c7 -9 8 -20 3 -30
-8 -14 -11 -15 -22 -1 -7 8 -19 12 -27 9 -13 -5 -20 17 -9 28 10 11 45 7 55
-6z m-52 -43 c2 -7 -3 -12 -12 -12 -21 0 -20 -26 2 -39 15 -9 15 -10 1 -11 -9
0 -22 -7 -29 -15 -10 -12 -9 -16 4 -21 9 -3 16 -15 16 -25 0 -21 20 -25 38 -7
9 9 12 7 12 -8 0 -27 10 -36 25 -24 20 17 54 -1 67 -36 7 -19 16 -34 22 -34 5
0 6 -3 3 -6 -3 -4 -3 -14 2 -23 5 -9 11 -29 15 -44 l7 -28 -63 34 c-35 19
-112 46 -171 62 -107 28 -151 50 -127 65 9 6 9 12 -1 28 -10 16 -16 18 -26 10
-10 -8 -13 -6 -13 5 0 17 -29 13 -41 -5 -3 -4 -16 6 -28 23 l-23 31 35 -5 c20
-3 38 -2 41 1 10 9 86 7 86 -3 0 -5 4 -4 9 4 5 7 14 10 20 7 6 -4 11 -2 11 4
0 6 4 9 9 5 10 -5 81 63 81 78 0 12 23 3 28 -11z m-748 -60 c-7 -3 -16 2 -21
9 -16 25 -9 32 12 13 13 -12 16 -20 9 -22z"/>
<path d="M2337 5353 c-19 -8 -38 -22 -41 -30 -23 -59 80 -98 153 -58 26 14 26
14 4 21 -28 8 -29 19 -3 37 20 14 20 15 3 22 -47 19 -81 22 -116 8z"/>
<path d="M5980 5207 c0 -6 -3 -7 -7 -4 -3 4 -11 3 -17 -2 -6 -5 -26 -11 -44
-14 -18 -3 -40 -11 -48 -17 -7 -7 -14 -9 -14 -4 0 5 -7 0 -15 -10 -8 -11 -15
-16 -15 -10 0 5 -8 -3 -18 -19 -10 -15 -22 -24 -27 -20 -4 5 -6 3 -2 -2 3 -6
2 -26 -2 -45 -5 -23 -3 -44 6 -62 7 -15 14 -36 16 -47 2 -11 6 -24 10 -27 4
-4 7 -22 7 -41 0 -18 5 -33 11 -33 6 0 9 -9 6 -19 -3 -12 1 -22 10 -25 8 -3
12 -10 8 -15 -3 -5 -1 -12 5 -16 6 -4 8 -11 5 -16 -4 -5 1 -9 10 -9 16 0 28
-22 25 -44 -1 -5 3 -12 8 -15 13 -8 62 -103 62 -119 0 -7 5 -10 10 -7 6 3 10
2 10 -3 0 -10 7 -11 95 -13 39 -1 71 4 80 11 11 9 15 9 15 1 0 -8 4 -8 14 1 8
7 12 16 10 20 -3 4 4 15 14 25 24 22 40 52 46 86 2 14 14 35 26 47 21 21 21
22 3 37 -10 8 -11 11 -3 7 12 -6 12 -4 -1 12 -9 10 -28 45 -43 77 -29 64 -51
73 -86 35 -21 -22 -50 -33 -50 -18 0 5 -4 19 -9 32 -5 13 -9 26 -10 31 0 4 -8
21 -16 37 -8 16 -15 32 -15 35 0 3 0 6 -1 8 0 1 -2 16 -4 32 -2 17 -9 50 -15
75 -6 25 -11 50 -12 57 -2 15 -38 25 -38 10z"/>
<path d="M4054 5188 c-8 -26 13 -57 37 -55 25 2 42 31 34 56 -7 24 -63 23 -71
-1z"/>
<path d="M5143 4996 c8 -21 -21 -34 -34 -15 -8 12 -11 12 -19 -1 -13 -20 -12
-37 5 -85 8 -21 13 -40 12 -42 -2 -1 -17 -3 -35 -5 -18 -1 -32 -6 -32 -10 0
-4 -7 -4 -17 -1 -10 4 -14 2 -10 -4 4 -6 0 -13 -8 -17 -8 -3 -15 -13 -15 -22
0 -10 -3 -14 -7 -11 -3 4 -12 2 -19 -4 -8 -6 -21 -9 -29 -5 -9 3 -13 2 -10 -4
6 -9 -34 -36 -47 -32 -5 1 -8 -2 -8 -7 0 -5 -9 -13 -21 -16 -16 -6 -20 -14
-18 -43 2 -21 7 -42 11 -48 5 -7 8 -16 6 -20 -1 -5 4 -26 11 -47 7 -21 14 -46
16 -55 2 -9 4 -18 5 -19 2 -2 3 -8 4 -15 1 -15 23 -22 31 -9 3 6 15 11 25 11
10 0 26 7 35 16 8 9 33 18 55 21 22 3 40 10 40 15 0 6 7 8 15 4 8 -3 15 -1 15
4 0 6 17 10 39 10 22 0 44 6 51 15 7 8 16 12 21 9 5 -3 9 -1 9 4 0 5 21 8 48
7 26 -1 47 -3 47 -5 0 -1 18 -3 41 -4 22 -1 46 -6 52 -10 8 -5 10 -2 5 10 -4
12 -3 15 5 10 7 -4 12 -14 12 -22 0 -8 4 -14 8 -14 13 0 34 -72 30 -100 -4
-31 -107 -135 -130 -132 -22 4 -102 -76 -106 -106 -2 -12 6 -38 18 -57 12 -19
18 -35 13 -35 -4 -1 3 -10 17 -21 14 -12 26 -25 26 -30 1 -5 2 -16 3 -24 1
-15 30 -10 43 9 3 5 12 11 20 12 7 2 20 5 28 6 8 2 26 11 40 21 13 9 30 17 38
17 7 0 11 4 8 9 -5 8 29 25 47 22 4 -1 7 4 7 10 0 5 5 7 10 4 6 -3 10 -2 10 2
0 5 18 19 40 33 22 14 41 28 41 32 1 5 3 13 4 18 1 6 3 15 4 21 0 5 5 8 10 5
7 -5 45 39 46 54 0 3 3 10 6 15 3 6 5 25 4 43 -1 17 1 32 5 32 3 0 6 8 7 18 1
9 5 33 8 52 12 73 14 120 5 125 -5 3 -7 12 -4 19 3 7 -1 20 -8 27 -7 8 -14 21
-16 29 -2 8 -9 18 -15 22 -7 4 -8 8 -3 8 5 0 3 6 -3 13 -6 8 -8 17 -5 20 3 3
-3 16 -15 28 -12 13 -21 27 -21 32 0 4 -7 15 -15 23 -8 9 -15 13 -15 10 0 -3
-12 6 -26 19 -15 14 -36 26 -48 26 -12 1 -50 2 -86 4 -36 1 -84 7 -107 12 -23
6 -45 8 -48 5 -10 -10 -95 -8 -96 3 -2 34 -12 63 -27 84 -22 30 -48 41 -39 17z"/>
<path d="M4264 4924 c-11 -13 -25 -23 -32 -24 -7 0 -10 -5 -7 -10 4 -6 3 -9
-2 -8 -27 7 -89 -34 -78 -51 3 -5 1 -12 -4 -16 -6 -3 -2 -14 9 -25 21 -21 26
-55 10 -65 -6 -4 -8 -11 -5 -16 4 -5 0 -9 -7 -9 -7 0 -30 -14 -50 -30 -32 -27
-36 -34 -28 -55 5 -14 7 -25 4 -25 -3 0 2 -7 10 -16 9 -8 16 -21 17 -27 2 -34
28 -98 29 -71 0 6 6 11 13 11 6 0 38 8 70 17 39 11 55 21 51 29 -4 7 3 3 15
-7 32 -29 25 -76 -14 -95 -16 -8 -33 -19 -37 -25 -4 -6 -8 -8 -8 -5 0 4 -16 1
-37 -6 -35 -12 -36 -15 -39 -64 -2 -31 2 -56 10 -63 7 -7 11 -18 10 -23 -2 -6
5 -26 14 -45 15 -30 22 -35 47 -32 17 2 35 8 40 15 6 7 17 13 25 15 8 2 17 8
20 12 8 13 48 1 54 -17 4 -9 2 -21 -4 -28 -5 -6 -7 -15 -3 -18 6 -6 -11 -11
-29 -8 -5 0 -8 -4 -8 -9 0 -6 -7 -10 -15 -10 -8 0 -15 -4 -15 -10 0 -5 -7 -10
-15 -10 -35 0 -102 -94 -112 -158 -7 -44 -5 -57 13 -98 9 -21 16 -42 16 -46
-1 -5 3 -8 10 -8 6 0 9 -2 6 -6 -3 -3 8 -20 26 -38 27 -29 72 -51 124 -61 9
-2 17 -4 17 -5 0 -1 11 -3 25 -5 14 -1 35 -5 48 -8 12 -3 22 -2 22 4 0 5 11 7
25 5 26 -5 85 13 85 26 0 4 6 8 13 8 6 0 27 16 46 35 32 32 34 39 34 97 0 35
-3 78 -6 96 -5 32 -5 32 33 32 21 0 41 -4 44 -8 2 -4 17 -8 31 -7 23 0 30 7
45 48 10 26 15 47 12 47 -3 0 -1 5 6 12 8 8 8 16 0 32 -6 12 -10 23 -9 26 4 7
-87 51 -114 55 -10 2 -30 9 -77 29 -28 11 -30 18 -30 96 0 37 2 42 17 36 8 -3
15 0 15 6 0 6 3 9 6 5 4 -3 12 -1 20 6 39 35 44 38 44 26 0 -7 8 -5 20 6 23
21 22 54 -4 106 -9 18 -16 37 -16 44 0 8 -22 12 -67 13 -103 0 -117 1 -110 8
3 4 -1 13 -9 21 -8 8 -12 19 -9 24 4 5 2 9 -3 9 -5 0 -7 11 -5 24 3 13 0 27
-6 30 -12 8 9 36 26 36 5 0 18 8 29 18 11 10 31 22 46 25 31 8 40 37 22 72 -7
14 -12 27 -11 28 1 1 -10 22 -25 47 -15 25 -27 40 -28 34 0 -6 -11 -10 -25 -9
-14 2 -23 0 -20 -4 5 -9 -57 -39 -94 -46 -17 -3 -24 1 -28 15 -3 11 -9 17 -14
14 -5 -3 -9 1 -9 9 0 42 -76 57 -106 21z m172 -947 c14 5 22 -8 29 -44 2 -10
4 -19 5 -20 10 -13 0 -46 -19 -62 -23 -20 -33 -21 -77 -6 -26 8 -46 58 -30 76
8 9 8 10 -3 4 -10 -6 -12 -4 -6 6 16 27 38 48 46 44 4 -3 11 0 14 6 5 7 11 7
17 1 6 -6 17 -8 24 -5z"/>
<path d="M3131 4894 c-28 -35 -27 -54 3 -54 31 0 78 53 52 58 -9 2 -14 8 -11
13 14 22 -25 7 -44 -17z"/>
<path d="M3640 4601 c0 -5 -10 -11 -22 -14 -32 -9 -93 -69 -118 -116 -11 -22
-20 -43 -20 -46 0 -15 72 -75 90 -75 11 0 28 -9 38 -21 39 -46 73 -79 82 -79
13 0 53 -22 62 -35 4 -5 4 -13 1 -19 -3 -5 -1 -6 5 -2 6 3 14 2 17 -4 4 -7 14
-3 26 11 10 12 19 19 19 15 0 -4 6 -1 13 6 8 7 12 20 9 30 -2 10 0 18 6 18 16
0 54 67 59 104 4 30 0 37 -46 71 -28 20 -51 41 -51 45 0 5 -9 11 -19 15 -11 3
-23 15 -26 25 -3 10 -12 17 -18 14 -7 -2 -28 10 -48 28 -36 34 -59 45 -59 29z"/>
<path d="M4021 4474 c0 -11 3 -14 6 -6 3 7 2 16 -1 19 -3 4 -6 -2 -5 -13z"/>
<path d="M2850 4370 c0 -5 -3 -9 -7 -9 -22 4 -32 -3 -27 -16 4 -8 1 -15 -5
-15 -6 0 -17 -12 -25 -27 -8 -16 -15 -24 -16 -20 0 10 -100 -105 -100 -115 0
-3 -17 -24 -39 -45 -21 -21 -37 -46 -36 -55 2 -10 -1 -18 -6 -18 -5 0 -9 -4
-9 -9 0 -6 -14 -25 -30 -43 -17 -18 -33 -43 -36 -55 -4 -13 -10 -23 -16 -23
-5 0 -7 -4 -4 -9 4 -5 2 -21 -4 -36 -7 -17 -7 -24 0 -20 6 3 10 1 10 -4 0 -6
-4 -11 -9 -11 -5 0 -14 -13 -20 -30 -5 -16 -15 -30 -20 -30 -19 0 -12 -28 11
-50 12 -11 18 -20 13 -20 -4 0 5 -12 21 -27 16 -15 29 -29 29 -32 1 -15 51
-61 79 -72 17 -7 39 -20 48 -28 34 -31 47 -41 58 -41 6 0 9 -4 6 -9 -3 -5 1
-12 10 -15 10 -4 13 -2 8 7 -12 19 34 -22 108 -97 38 -37 68 -72 68 -78 0 -5
5 -6 10 -3 6 3 10 0 10 -7 0 -23 43 -18 67 8 13 14 23 22 23 18 0 -4 13 9 29
29 15 20 31 34 35 30 3 -3 6 1 6 10 0 9 14 24 30 34 17 9 31 24 31 33 6 65 4
70 -32 103 -20 19 -49 37 -64 41 -15 4 -37 18 -49 31 -13 14 -28 25 -35 25 -6
0 -16 9 -23 19 -6 10 -17 17 -23 14 -7 -2 -15 3 -18 11 -4 9 -13 16 -22 16 -8
0 -15 5 -15 10 0 6 -6 10 -13 10 -7 0 -24 10 -37 23 -14 12 -28 21 -32 19 -5
-1 -8 6 -8 15 0 25 31 103 41 103 5 0 9 7 9 15 0 8 9 20 20 27 11 7 20 17 20
23 0 6 9 16 20 23 12 7 19 16 16 21 -3 4 4 13 14 21 10 8 17 17 15 21 -3 4 2
12 10 19 8 7 15 18 15 24 0 6 11 24 25 40 14 16 25 33 25 38 0 5 4 7 8 4 4 -2
9 6 10 20 1 16 -3 24 -13 24 -9 0 -18 7 -21 15 -4 8 -11 15 -17 15 -11 0 -87
79 -87 90 0 3 -9 11 -20 18 -12 7 -20 8 -20 2z"/>
<path d="M3417 4343 c-9 -2 -15 -9 -12 -14 6 -8 -8 -13 -27 -10 -5 0 -8 -3 -8
-7 0 -5 -7 -9 -15 -9 -8 0 -15 4 -15 8 0 12 -52 -9 -80 -32 -14 -11 -18 -18
-10 -14 8 4 6 -2 -5 -12 -11 -10 -21 -25 -23 -32 -4 -18 8 -52 16 -47 4 2 8
-10 9 -27 1 -17 6 -33 11 -36 16 -10 37 -82 27 -89 -15 -11 -15 -46 -1 -54 7
-4 12 -19 11 -33 -2 -14 1 -25 6 -25 4 0 6 -6 3 -14 -5 -14 20 -46 37 -46 5 0
9 -7 9 -15 0 -16 1 -16 40 -19 14 -1 35 -7 46 -13 12 -7 24 -10 27 -7 10 11
86 11 80 1 -4 -6 0 -8 10 -4 10 3 17 2 17 -3 0 -5 13 -16 29 -26 34 -20 63
-66 55 -88 -3 -9 -1 -16 4 -16 6 0 1 -30 -13 -70 -13 -38 -21 -70 -17 -70 4 0
1 -4 -6 -9 -11 -6 -8 -14 11 -35 13 -14 29 -26 36 -26 6 0 11 -4 11 -9 0 -5
21 -14 46 -20 25 -7 56 -19 69 -27 22 -14 25 -14 40 10 10 14 22 23 29 19 6
-3 8 -3 4 2 -4 4 -1 22 7 40 7 19 11 36 7 39 -3 3 1 6 8 6 7 0 10 3 7 6 -4 4
2 19 13 34 11 16 20 39 20 52 0 14 3 28 7 31 9 9 11 97 2 97 -3 0 -5 14 -4 30
1 17 -1 33 -6 36 -5 3 -7 10 -4 15 4 5 1 9 -4 9 -6 0 -11 6 -11 14 0 8 -4 16
-8 18 -4 2 -21 20 -36 41 -16 20 -35 37 -43 37 -7 0 -16 7 -19 15 -4 8 -10 13
-14 10 -4 -3 -11 2 -14 11 -3 9 -12 14 -18 12 -7 -3 -21 4 -32 14 -11 10 -25
17 -30 16 -18 -2 -66 14 -66 22 0 5 -8 6 -19 3 -19 -5 -29 10 -37 57 -3 14
-14 44 -24 67 -11 24 -20 47 -20 53 0 6 -4 18 -9 28 -14 25 -24 56 -23 65 1 4
-2 7 -7 7 -5 0 -13 9 -16 20 -6 19 -21 23 -58 13z"/>
<path d="M2283 4265 c-17 -8 -37 -24 -44 -36 -10 -20 -9 -25 11 -41 15 -12 31
-16 49 -12 52 12 96 54 56 54 -18 0 -19 12 -3 28 7 7 8 12 3 13 -6 0 -17 2
-26 4 -8 1 -29 -3 -46 -10z"/>
<path d="M6158 4056 c-5 -40 -3 -73 5 -83 6 -9 5 -13 -4 -13 -11 0 -11 -2 -1
-9 7 -4 12 -12 11 -17 -1 -5 0 -11 1 -14 4 -12 11 -48 14 -82 5 -49 60 -128
89 -128 9 0 17 -4 19 -10 2 -5 24 -3 56 6 40 12 50 19 43 28 -6 7 -8 16 -4 19
11 12 -19 37 -44 37 -25 0 -53 21 -53 40 0 6 -7 22 -16 35 -9 14 -12 25 -6 25
7 0 7 11 1 35 -6 19 -7 39 -4 44 3 5 1 12 -3 15 -5 3 -9 19 -10 36 0 16 -3 34
-7 39 -8 14 -85 11 -87 -3z"/>
<path d="M5887 3943 c-49 -14 -68 -36 -48 -56 6 -6 11 -19 11 -30 0 -17 2 -17
22 -3 31 22 65 20 78 -4 9 -18 6 -21 -32 -30 -57 -15 -90 -41 -91 -73 -1 -15
-6 -27 -10 -27 -4 0 -3 -9 3 -20 6 -11 8 -20 4 -20 -3 0 -1 -7 6 -15 7 -8 10
-15 6 -15 -7 0 19 -33 48 -61 15 -15 23 -16 40 -7 12 6 22 11 24 10 13 -9 46
3 69 26 32 32 41 33 68 9 11 -10 21 -13 23 -7 2 5 9 10 15 10 7 0 20 12 30 26
18 25 18 26 -2 43 -12 10 -21 21 -21 24 0 3 -11 17 -25 31 -15 15 -23 32 -20
45 2 12 -1 21 -6 21 -6 0 -8 4 -5 9 9 13 -5 71 -15 65 -8 -4 -13 17 -10 38 0
4 -6 5 -15 1 -9 -3 -19 -1 -23 5 -11 18 -72 21 -124 5z m105 -210 c4 -21 -22
-50 -44 -50 -8 0 -20 8 -26 18 -9 14 -8 22 4 34 21 21 62 20 66 -2z"/>
<path d="M5285 3861 c6 -10 4 -13 -6 -9 -25 10 -52 -19 -54 -57 -1 -20 2 -38
7 -41 5 -3 5 -11 2 -17 -4 -7 -4 -9 1 -5 4 4 16 3 26 -3 14 -7 19 -6 19 3 0
10 2 10 9 -1 6 -9 11 -10 15 -2 4 6 11 9 16 6 9 -6 21 19 25 54 3 23 -9 41
-49 71 -17 12 -18 13 -11 1z"/>
<path d="M5649 3834 c-6 -8 -16 -33 -21 -57 -4 -23 -11 -53 -14 -67 -2 -14 -5
-33 -5 -42 0 -24 -16 -23 -24 2 -3 11 -11 20 -16 20 -6 0 -7 5 -4 10 3 6 2 10
-3 10 -9 0 -25 36 -23 52 0 3 -6 11 -13 17 -18 15 -60 5 -82 -20 -15 -17 -15
-21 0 -51 19 -39 39 -71 47 -78 3 -3 15 -21 27 -40 29 -50 58 -81 66 -73 3 3
6 1 6 -4 0 -7 9 -9 23 -5 40 12 60 29 63 53 1 13 3 24 4 24 2 0 4 9 6 20 1 11
6 31 9 45 4 14 8 33 8 43 1 9 4 17 7 17 4 0 7 6 8 13 0 6 3 31 6 55 3 26 2 40
-4 37 -6 -4 -10 -2 -10 3 0 5 -11 14 -24 20 -19 9 -27 8 -37 -4z"/>
<path d="M545 3794 c-67 -23 -74 -63 -15 -94 29 -16 73 -15 112 1 28 11 28 12
8 26 -26 18 -25 30 2 39 19 6 20 7 4 16 -38 22 -73 25 -111 12z"/>
<path d="M5047 3768 c2 -5 -1 -8 -6 -8 -12 0 -10 -27 2 -47 11 -18 -3 -43 -29
-49 -13 -3 -24 -13 -24 -21 0 -8 -4 -12 -10 -8 -5 3 -3 -11 4 -32 11 -32 18
-38 45 -41 26 -3 30 -6 21 -17 -8 -9 -7 -17 4 -28 8 -8 12 -17 9 -21 -3 -3 -2
-11 4 -18 5 -7 9 -20 8 -28 0 -8 11 -27 24 -42 20 -24 30 -27 73 -24 27 1 53
7 59 13 13 13 30 75 18 68 -5 -4 -9 1 -9 9 0 15 -12 21 -34 17 -29 -6 -56 11
-56 35 0 16 -4 23 -12 18 -7 -5 -8 -3 -2 7 5 8 7 21 6 30 -2 10 8 22 26 30 20
8 28 19 26 33 -1 12 -3 26 -3 33 -1 7 -16 16 -33 21 -18 5 -32 14 -30 21 1 6
-2 11 -7 11 -4 0 -6 10 -4 23 4 21 1 23 -35 23 -22 -1 -38 -4 -35 -8z"/>
<path d="M5284 3652 c-16 -15 -17 -25 -7 -36 4 -3 8 -14 10 -24 12 -71 12 -69
27 -124 9 -30 51 -64 61 -48 3 6 15 10 25 10 17 0 19 6 14 53 -4 28 -7 61 -8
73 -1 11 -5 25 -9 31 -4 6 -8 23 -9 37 -1 14 -6 26 -11 26 -4 0 -5 5 -2 10 10
16 -75 9 -91 -8z"/>
<path d="M4806 3652 c-4 -4 -11 -7 -16 -7 -9 0 -60 -52 -61 -63 -7 -56 -5 -74
7 -86 8 -8 14 -19 14 -25 0 -5 9 -13 20 -16 11 -3 20 -10 20 -14 0 -4 10 -7
23 -6 25 3 57 -21 57 -42 0 -13 -17 -18 -52 -15 -26 2 -39 -29 -25 -59 11 -20
20 -24 60 -24 27 1 51 5 55 11 4 6 15 13 25 17 15 6 22 25 18 50 0 4 3 7 7 7
10 0 9 36 -1 46 -4 4 -7 15 -7 24 0 9 -9 25 -20 35 -11 10 -20 15 -20 11 0 -4
-10 0 -21 8 -12 8 -27 12 -34 9 -16 -6 -37 28 -27 44 4 6 26 10 49 9 36 -2 42
1 46 21 2 13 0 23 -5 23 -5 0 -7 4 -4 9 10 15 -94 47 -108 33z"/>
<path d="M4204 3561 c-2 -2 -12 -5 -22 -6 -9 -1 -24 -5 -32 -8 -58 -24 -76
-30 -82 -29 -5 1 -8 -2 -8 -8 0 -5 -6 -10 -14 -10 -27 0 -27 -23 0 -125 3 -11
6 -34 8 -51 1 -16 6 -36 10 -43 5 -7 5 -15 2 -18 -3 -3 -1 -12 5 -20 6 -7 9
-13 6 -13 -4 0 0 -18 8 -41 8 -22 14 -43 13 -47 -1 -4 1 -17 5 -29 8 -22 37
-40 37 -22 0 6 4 8 10 4 5 -3 25 5 44 17 35 23 46 38 26 38 -5 0 -10 13 -10
28 0 15 -5 33 -12 40 -16 16 -2 29 42 37 98 19 92 16 85 44 -3 14 -7 36 -8 48
0 12 -3 20 -6 18 -2 -3 -10 0 -18 6 -7 6 -13 7 -13 2 0 -5 -8 -10 -17 -11 -10
-1 -35 -4 -55 -6 -39 -5 -69 12 -64 36 6 26 18 48 25 43 4 -2 18 2 32 9 13 7
30 11 37 8 6 -2 12 1 12 6 0 5 13 15 30 22 28 11 35 28 17 41 -4 3 -9 15 -10
26 -1 16 -8 20 -40 19 -21 -1 -40 -3 -43 -5z"/>
<path d="M4476 3546 c-20 -12 -36 -27 -36 -34 0 -7 -5 -10 -11 -7 -6 4 -9 1
-8 -6 2 -8 -2 -24 -9 -37 -7 -12 -10 -27 -7 -32 3 -6 2 -10 -4 -10 -7 0 -7 -8
-1 -24 6 -16 5 -28 -3 -36 -9 -10 -9 -11 1 -6 11 7 16 -4 13 -30 0 -5 8 -20
19 -32 12 -12 17 -22 13 -22 -20 0 42 -33 66 -35 15 -1 32 -4 37 -8 12 -7 41
-4 50 5 3 4 12 4 20 1 8 -3 14 0 14 6 0 6 5 11 11 11 6 0 19 10 28 22 17 20
17 22 -3 45 -11 13 -26 21 -34 18 -7 -2 -10 0 -7 5 10 15 -6 12 -19 -4 -13
-17 -76 -29 -76 -15 0 6 -4 8 -9 5 -15 -10 -20 22 -5 34 11 10 14 10 14 -1 0
-12 2 -12 9 0 5 8 14 10 21 6 9 -6 11 -4 5 5 -6 10 -2 12 15 7 13 -3 28 0 37
9 8 8 24 14 37 14 18 0 21 5 21 33 -3 63 -5 74 -23 93 -45 49 -112 56 -176 20z
m111 -89 c-3 -9 -16 -13 -31 -12 -14 2 -26 0 -26 -4 0 -4 -11 -8 -25 -9 -30
-2 -33 17 -5 41 11 9 20 14 20 11 0 -3 7 2 16 11 16 15 18 15 37 -3 11 -11 17
-27 14 -35z"/>
<path d="M3341 3443 c5 -31 -24 -49 -33 -21 -2 6 -9 8 -16 4 -15 -9 -6 -83 13
-113 22 -33 51 -46 75 -33 38 20 34 107 -7 152 -16 18 -34 24 -32 11z"/>
<path d="M3620 3340 c0 -3 -11 -10 -25 -17 -19 -8 -24 -8 -19 0 3 7 -1 4 -9
-5 -8 -10 -17 -14 -22 -10 -4 4 3 -10 15 -31 23 -38 43 -58 38 -37 -3 14 28
22 59 15 24 -5 26 -39 2 -41 -8 -1 -18 -3 -24 -4 -5 -1 -13 -2 -17 -1 -5 0 -8
-3 -8 -9 0 -5 -8 -10 -19 -10 -23 0 -51 -55 -47 -91 4 -32 28 -89 38 -89 5 0
8 -6 8 -12 0 -7 11 -18 25 -25 14 -6 25 -8 25 -3 0 4 8 7 18 7 40 0 51 4 83
33 31 27 36 28 56 15 31 -21 40 -19 68 11 24 26 35 61 15 49 -5 -3 -10 1 -10
10 0 9 -4 13 -10 10 -5 -3 -10 1 -10 9 0 8 -9 21 -20 29 -11 8 -20 27 -22 45
-1 18 -6 32 -10 32 -5 0 -4 9 2 20 7 14 7 20 0 20 -5 0 -10 6 -10 13 0 17 -44
59 -53 50 -4 -3 -7 -1 -7 6 0 7 -4 9 -10 6 -5 -3 -10 -2 -10 3 0 6 -20 9 -45
9 -25 -1 -45 -4 -45 -7z m93 -219 c5 -20 -25 -53 -46 -48 -30 6 -37 53 -9 60
36 10 50 6 55 -12z"/>
<path d="M3381 3232 c-13 -2 -35 -15 -50 -28 -30 -28 -41 -30 -41 -9 0 17 -32
20 -60 5 -11 -6 -17 -16 -15 -23 6 -14 15 -72 17 -104 1 -12 6 -19 12 -16 5 4
7 -1 3 -10 -3 -10 -2 -17 3 -17 5 0 12 -17 16 -37 4 -21 12 -47 17 -58 6 -11
11 -24 12 -29 0 -17 42 -24 66 -12 19 10 23 18 20 42 -3 16 -5 44 -5 62 -1 17
-4 32 -7 32 -3 0 -4 17 -2 38 2 37 31 72 59 72 8 0 13 3 12 8 0 4 2 15 6 25 5
9 6 27 2 40 -5 23 -16 26 -65 19z"/>
<path d="M5190 3184 c-62 -22 -75 -30 -123 -73 -28 -25 -69 -89 -49 -77 5 3
22 -6 38 -19 84 -73 280 -87 355 -26 20 16 21 21 10 35 -12 14 -10 19 13 37
24 19 35 49 19 49 -5 0 -19 9 -32 19 -19 15 -22 21 -12 38 10 19 7 22 -27 29
-65 14 -131 10 -192 -12z"/>
<path d="M3117 3152 c-27 -3 -56 -37 -37 -44 6 -2 12 -26 15 -55 3 -41 0 -57
-16 -77 -21 -27 -61 -36 -56 -13 1 6 -3 11 -9 10 -7 -1 -15 13 -18 32 -4 19
-11 35 -15 35 -5 0 -9 6 -8 13 2 50 -3 57 -38 57 -21 0 -35 -5 -36 -12 -6 -59
-3 -106 5 -101 5 4 7 -1 3 -10 -3 -10 -2 -17 3 -17 5 0 7 -9 5 -20 -2 -11 0
-20 6 -20 5 0 9 -5 9 -11 0 -6 7 -17 15 -26 8 -8 12 -19 9 -25 -4 -6 -2 -8 3
-5 6 4 16 0 23 -9 7 -8 19 -13 27 -10 7 3 13 2 13 -3 0 -4 7 -8 15 -9 50 -5
70 -3 73 7 2 6 10 11 18 11 9 0 13 4 9 9 -3 6 4 15 15 21 11 6 19 14 19 18 -3
18 2 33 9 28 9 -5 6 117 -3 154 -4 14 -7 31 -7 38 -1 6 -5 12 -10 12 -5 0 -7
4 -3 9 7 13 -5 17 -38 13z"/>
<path d="M2600 3142 c-55 -25 -62 -40 -43 -92 3 -8 7 -26 9 -40 2 -14 5 -36 7
-50 4 -27 36 -118 47 -135 4 -5 6 -20 5 -32 -1 -13 2 -23 6 -23 5 0 11 -11 15
-25 3 -14 9 -26 13 -26 29 -6 48 -4 56 5 13 14 17 69 5 61 -4 -3 -6 4 -3 15 7
27 23 36 34 19 5 -8 9 -10 9 -4 0 5 7 -1 16 -13 8 -12 20 -20 25 -17 5 4 9 2
9 -3 0 -17 35 -8 57 15 l22 23 -21 25 c-12 14 -28 25 -35 25 -7 0 -13 5 -13
10 0 6 -7 10 -15 10 -12 0 -13 4 -6 19 6 10 7 21 4 25 -3 3 -1 6 6 6 7 0 10 4
7 9 -3 4 0 22 6 38 13 35 1 55 -39 65 -18 5 -24 0 -32 -24 -10 -28 -60 -95
-62 -84 -2 10 -6 21 -11 36 -15 42 -27 94 -22 102 3 4 0 8 -6 8 -6 0 -9 4 -5
10 6 9 -15 51 -25 49 -3 0 -12 -3 -20 -7z"/>
<path d="M4965 3040 c-17 -8 -17 -9 7 -7 15 1 24 5 22 9 -3 4 -6 8 -7 7 -1 0
-11 -4 -22 -9z"/>
<path d="M4830 3014 c-25 -8 -56 -16 -70 -18 -14 -2 -32 -6 -40 -9 -61 -24
-146 -43 -151 -35 -3 5 -9 3 -12 -6 -4 -9 -12 -15 -18 -14 -6 2 -13 -2 -16 -8
-3 -10 120 24 197 53 8 4 18 6 21 5 3 0 46 10 95 23 49 13 78 24 64 23 -14 0
-45 -6 -70 -14z"/>
<path d="M4413 2891 c-39 -14 -75 -29 -79 -34 -4 -4 -17 -7 -28 -8 -12 0 -43
-11 -71 -25 -27 -13 -41 -21 -30 -18 11 4 46 14 78 22 31 8 57 19 57 23 0 5 7
6 15 3 8 -4 15 -1 15 6 0 7 8 10 20 7 11 -3 18 -2 15 3 -3 4 14 13 38 19 46
12 84 32 57 30 -8 -1 -47 -13 -87 -28z"/>
<path d="M3765 2900 c-3 -5 -14 -10 -25 -10 -16 0 -35 -25 -32 -42 1 -5 -3 -8
-9 -8 -5 0 -8 -4 -5 -8 3 -5 -1 -20 -9 -35 -8 -15 -11 -27 -8 -27 3 0 1 -6 -4
-12 -6 -7 -16 -34 -24 -60 -7 -27 -17 -48 -22 -48 -4 0 -5 -5 -1 -11 3 -6 2
-14 -4 -18 -10 -6 -18 -32 -21 -64 -2 -18 -50 30 -51 50 0 13 -6 22 -12 20 -7
-1 -12 4 -11 11 2 6 -2 12 -8 12 -5 0 -7 6 -3 13 5 8 2 8 -9 -2 -15 -12 -17
-11 -18 5 -1 11 -1 23 0 27 1 5 -3 6 -9 2 -5 -3 -10 -2 -10 3 0 18 -56 67 -75
67 -18 0 -43 -11 -100 -42 -11 -6 -34 -17 -52 -23 -27 -10 -31 -15 -24 -33 4
-12 9 -40 9 -62 2 -47 7 -71 21 -107 6 -15 8 -34 5 -42 -3 -8 0 -24 6 -36 6
-12 13 -36 15 -53 2 -18 6 -41 9 -52 23 -83 33 -135 28 -139 -3 -3 -1 -6 4 -6
6 0 16 -16 23 -35 8 -24 18 -35 29 -33 9 1 23 -1 31 -6 9 -6 12 -5 7 2 -3 6 3
14 15 17 25 8 60 41 52 49 -4 3 -1 6 5 6 7 0 8 10 1 33 -5 18 -11 48 -13 67
-3 19 -5 35 -6 35 -2 0 -9 38 -13 75 -2 20 -6 41 -10 46 -3 6 0 20 8 30 13 18
14 17 27 -14 8 -18 17 -30 20 -26 4 3 14 -9 24 -27 9 -18 22 -39 29 -46 7 -7
23 -28 35 -48 12 -19 27 -36 33 -36 34 -5 53 -3 64 4 7 5 16 6 21 4 12 -8 28
24 28 53 -1 14 3 28 7 31 5 3 10 35 12 71 2 35 8 76 14 90 5 14 8 28 5 31 -11
10 19 55 35 52 9 -2 19 -4 24 -4 4 -1 7 -14 7 -31 0 -16 5 -30 11 -30 5 0 8
-4 5 -9 -3 -4 1 -17 9 -27 8 -10 15 -29 15 -41 0 -12 5 -23 11 -25 5 -2 11
-11 13 -20 1 -10 5 -20 8 -24 4 -3 4 -12 1 -20 -3 -8 0 -14 7 -14 6 0 9 -4 5
-9 -3 -5 -1 -12 5 -16 5 -3 10 -14 10 -24 0 -35 23 -42 68 -20 23 12 42 25 42
31 0 5 4 7 9 3 5 -3 17 2 26 11 12 12 13 19 5 24 -6 4 -11 9 -9 11 6 10 -12
89 -20 89 -8 0 -15 12 -27 50 0 3 -5 20 -9 38 -4 17 -11 32 -15 32 -4 0 -10 9
-13 20 -3 11 -1 20 4 20 5 0 3 10 -6 23 -8 13 -12 27 -8 31 4 4 1 11 -7 16
-11 7 -12 10 -2 10 7 0 10 5 7 11 -4 5 7 15 24 22 17 6 31 14 31 18 0 9 -39
-1 -46 -12 -9 -14 -24 -10 -18 5 3 7 -2 16 -11 20 -9 3 -13 11 -10 17 4 5 -1
20 -12 31 -10 12 -12 18 -5 14 19 -11 14 8 -8 34 -11 12 -22 31 -25 41 -4 13
-16 19 -36 19 -16 0 -29 -4 -29 -10 0 -6 -9 -6 -26 0 -31 12 -31 12 -39 0z"/>
<path d="M4123 2786 c-29 -12 -53 -24 -53 -28 0 -3 24 3 53 15 59 24 62 26 56
30 -2 2 -28 -6 -56 -17z"/>
<path d="M485 2706 c-49 -21 -60 -41 -41 -70 12 -20 21 -23 48 -19 54 8 107
53 63 53 -18 0 -19 12 -3 28 8 8 9 12 1 12 -6 0 -17 2 -25 5 -7 2 -27 -2 -43
-9z"/>
<path d="M4693 2463 c-7 -3 -13 -13 -13 -24 0 -10 -7 -19 -15 -19 -22 0 -18
-16 10 -38 27 -21 56 -19 76 4 23 28 -24 89 -58 77z"/>
<path d="M3907 2052 c-12 -2 -16 -10 -12 -29 8 -47 45 -50 52 -4 3 23 -16 39
-40 33z"/>
<path d="M2756 1290 c-32 -58 -29 -75 11 -83 33 -6 49 12 25 29 -16 12 -15 16
5 53 20 34 20 40 7 45 -9 3 -17 6 -18 6 -2 0 -15 -23 -30 -50z"/>
<path d="M5246 1304 c-20 -20 -11 -37 15 -29 17 6 19 3 13 -20 -6 -24 -4 -27
15 -20 13 4 21 2 21 -5 0 -7 -9 -14 -19 -17 -34 -9 -34 -33 -1 -33 39 0 63 33
48 66 -6 13 -15 24 -20 24 -5 0 -6 5 -3 10 9 15 -14 40 -36 40 -9 0 -25 -7
-33 -16z"/>
<path d="M2866 1272 c-4 -3 2 -14 11 -25 17 -19 17 -20 -2 -9 -27 14 -55 -2
-55 -33 0 -17 9 -26 33 -36 42 -16 53 -17 49 -1 -1 7 3 22 9 33 14 28 4 65
-20 72 -11 3 -22 2 -25 -1z m4 -62 c0 -5 -4 -10 -10 -10 -5 0 -10 5 -10 10 0
6 5 10 10 10 6 0 10 -4 10 -10z"/>
<path d="M5152 1258 c-17 -17 -15 -48 2 -48 8 0 16 6 19 13 2 6 8 9 12 5 5 -5
3 -26 -4 -49 -7 -22 -11 -43 -8 -45 5 -5 69 16 82 28 6 5 1 11 -13 15 -17 4
-22 11 -18 25 8 33 -11 68 -37 68 -13 0 -28 -5 -35 -12z"/>
<path d="M5052 1218 c-43 -21 -42 -96 3 -116 31 -14 71 1 81 30 8 27 -4 69
-24 85 -20 15 -30 15 -60 1z m48 -58 c0 -25 -17 -35 -35 -20 -11 9 -12 17 -5
31 12 22 40 14 40 -11z"/>
<path d="M2946 1204 c-9 -8 -16 -19 -16 -24 0 -5 -3 -15 -6 -24 -4 -10 -1 -16
9 -16 9 0 19 9 22 20 9 29 27 24 23 -7 -4 -33 17 -42 26 -11 3 13 6 28 6 35 0
13 -27 43 -40 43 -5 0 -16 -7 -24 -16z"/>
<path d="M3036 1168 c-29 -41 -14 -78 31 -78 28 0 30 16 3 30 -29 15 -25 33 6
27 29 -5 46 19 23 34 -24 15 -47 10 -63 -13z"/>
<path d="M4930 1170 c-11 -11 -20 -24 -20 -30 0 -14 37 -12 43 3 3 8 7 6 12
-6 4 -10 1 -27 -9 -42 -26 -39 -21 -48 21 -40 21 4 41 9 45 11 12 8 -3 33 -16
28 -9 -3 -11 6 -8 32 3 28 0 41 -14 51 -24 17 -30 17 -54 -7z"/>
<path d="M3154 1159 c-4 -7 -2 -15 4 -17 20 -6 13 -19 -9 -18 -12 1 -26 -6
-32 -15 -15 -24 -1 -49 28 -49 14 0 25 -5 25 -11 0 -19 25 -3 25 17 1 10 3 24
6 29 11 21 3 48 -18 62 -17 11 -23 12 -29 2z m6 -69 c0 -5 -2 -10 -4 -10 -3 0
-8 5 -11 10 -3 6 -1 10 4 10 6 0 11 -4 11 -10z"/>
<path d="M4762 1132 c-28 -4 -36 -23 -28 -57 5 -18 13 -25 31 -25 16 0 25 -6
25 -15 0 -8 -7 -15 -15 -15 -17 0 -20 -16 -5 -25 15 -9 48 12 55 36 9 28 -19
58 -48 52 -22 -4 -22 -4 2 17 27 23 19 38 -17 32z"/>
<path d="M3239 1109 c-8 -15 -8 -24 0 -32 16 -16 13 -30 -4 -23 -9 3 -15 0
-15 -8 0 -24 39 -26 55 -3 13 19 13 23 -3 40 -14 16 -14 18 -2 16 15 -4 20 1
20 21 0 19 -39 10 -51 -11z"/>
<path d="M3340 1110 c0 -5 -6 -10 -14 -10 -16 0 -18 -81 -1 -92 17 -12 35 -9
35 6 0 8 -6 17 -12 19 -9 4 -5 12 12 27 16 14 21 23 13 26 -7 3 -9 12 -6 20 3
8 -1 14 -11 14 -9 0 -16 -4 -16 -10z"/>
<path d="M4646 1094 c-9 -8 -16 -19 -16 -24 0 -16 21 -22 35 -10 22 18 25 -4
4 -38 -28 -47 -25 -55 19 -47 48 9 64 24 34 32 -17 4 -20 9 -12 18 12 14 10
52 -3 73 -11 17 -42 15 -61 -4z"/>
<path d="M3399 1062 c-29 -37 -11 -81 34 -82 9 0 17 7 17 15 0 8 -6 15 -14 15
-8 0 -18 4 -21 10 -4 6 5 7 23 4 35 -7 51 19 27 46 -21 23 -43 21 -66 -8z m51
-12 c0 -5 -7 -7 -15 -4 -8 4 -15 8 -15 10 0 2 7 4 15 4 8 0 15 -4 15 -10z"/>
<path d="M3495 1046 c-3 -14 -7 -37 -10 -50 -3 -15 0 -26 10 -30 9 -3 15 0 15
10 0 8 12 26 26 39 24 22 26 54 3 39 -5 -3 -16 0 -24 6 -11 10 -15 7 -20 -14z"/>
<path d="M4446 1018 c3 -29 6 -59 7 -66 1 -22 32 -8 32 15 0 33 13 39 21 9 3
-14 13 -26 21 -26 12 0 14 7 9 32 -7 34 -20 48 -48 48 -10 0 -17 3 -17 8 3 20
-3 32 -16 32 -13 0 -15 -9 -9 -52z"/>
<path d="M3677 1053 c-10 -15 -19 -102 -12 -112 8 -13 35 -2 35 14 0 7 13 15
30 18 21 5 31 14 36 32 4 15 2 31 -3 36 -14 14 -79 23 -86 12z m57 -44 c-7
-11 -34 -12 -34 -1 0 14 11 21 26 15 8 -3 11 -9 8 -14z"/>
<path d="M4852 1036 c1 -10 8 -17 13 -17 15 1 12 24 -3 29 -9 3 -13 -2 -10
-12z"/>
<path d="M3789 1003 c-40 -65 -43 -76 -17 -70 13 2 30 8 39 11 10 4 23 0 33
-10 27 -27 37 -5 22 51 -16 66 -43 72 -77 18z m41 -23 c0 -5 -5 -10 -11 -10
-5 0 -7 5 -4 10 3 6 8 10 11 10 2 0 4 -4 4 -10z"/>
<path d="M4080 1015 c-16 -30 -27 -32 -35 -4 -5 14 -14 19 -28 17 -19 -3 -22
-10 -25 -60 -2 -47 0 -58 13 -58 10 0 15 10 15 33 l1 32 15 -28 c17 -31 30
-28 45 10 12 31 18 27 21 -15 2 -33 11 -41 24 -20 11 18 4 102 -9 110 -18 12
-23 10 -37 -17z"/>
<path d="M4372 1024 c-47 -32 -10 -108 43 -88 18 7 20 36 3 33 -44 -5 -52 16
-13 31 29 11 32 25 9 34 -20 8 -16 9 -42 -10z"/>
<path d="M4178 1023 c-9 -3 -15 -10 -12 -18 3 -8 12 -11 20 -8 8 3 14 2 14 -1
0 -4 -11 -11 -25 -16 -27 -10 -34 -41 -12 -57 6 -5 28 -8 47 -8 36 2 38 7 25
55 -2 8 -4 20 -4 27 -1 16 -31 31 -53 26z m22 -73 c0 -5 -4 -10 -10 -10 -5 0
-10 5 -10 10 0 6 5 10 10 10 6 0 10 -4 10 -10z"/>
<path d="M4264 1009 c-2 -4 -2 -26 2 -48 8 -49 34 -57 34 -11 0 18 6 33 15 36
27 11 17 33 -15 32 -17 -1 -33 -5 -36 -9z"/>
<path d="M3574 966 c-8 -22 3 -33 18 -18 9 9 9 15 0 24 -9 9 -13 7 -18 -6z"/>
<path d="M4560 966 c0 -8 4 -17 9 -20 10 -7 23 19 14 28 -11 11 -23 6 -23 -8z"/>
<path d="M3900 925 c0 -8 5 -15 10 -15 6 0 10 7 10 15 0 8 -4 15 -10 15 -5 0
-10 -7 -10 -15z"/>
<path d="M2877 880 c4 -14 0 -20 -11 -20 -23 0 -20 -16 10 -39 46 -37 102 5
71 53 -22 33 -78 38 -70 6z"/>
<path d="M2094 488 c-9 -15 4 -55 21 -62 19 -7 37 27 27 51 -8 19 -38 27 -48
11z"/>
</g>
</svg>
